<svg
  xmlns="http://www.w3.org/2000/svg"
  viewBox="0 0 24 24"
  fill="currentColor"
>
  <path d="M12 2C10.9 2 10 2.9 10 4V5.5C8.5 6.1 7.2 7.4 6.5 9H5C3.9 9 3 9.9 3 11V13C3 14.1 3.9 15 5 15H6.5C7.2 16.6 8.5 17.9 10 18.5V20C10 21.1 10.9 22 12 22C13.1 22 14 21.1 14 20V18.5C15.5 17.9 16.8 16.6 17.5 15H19C20.1 15 21 14.1 21 13V11C21 9.9 20.1 9 19 9H17.5C16.8 7.4 15.5 6.1 14 5.5V4C14 2.9 13.1 2 12 2ZM12 4H12.5V5.5C12.2 5.6 11.9 5.7 11.6 5.8C11.3 5.9 11 6 10.7 6.1C10.4 6.2 10.1 6.3 9.8 6.5C9.5 6.7 9.2 6.9 9 7.2C8.8 7.5 8.6 7.8 8.5 8.1C8.4 8.4 8.3 8.7 8.3 9H7.5C7.2 9 7 9.2 7 9.5C7 9.8 7.2 10 7.5 10H8.5C8.6 10.3 8.8 10.6 9 10.9C9.2 11.2 9.5 11.5 9.8 11.7C10.1 11.9 10.4 12 10.7 12.1C11 12.2 11.3 12.3 11.6 12.4C11.9 12.5 12.2 12.6 12.5 12.7V20H11.5V18.5C11.2 18.4 10.9 18.3 10.6 18.2C10.3 18.1 10 18 9.7 17.9C9.4 17.8 9.1 17.6 8.8 17.4C8.5 17.2 8.2 17 8 16.7C7.8 16.4 7.6 16.1 7.5 15.8C7.4 15.5 7.3 15.2 7.3 15H6.5C6.2 15 6 15.2 6 15.5C6 15.8 6.2 16 6.5 16H7.5C7.6 16.3 7.8 16.6 8 16.9C8.2 17.2 8.5 17.5 8.8 17.7C9.1 17.9 9.4 18 9.7 18.1C10 18.2 10.3 18.3 10.6 18.4C10.9 18.5 11.2 18.6 11.5 18.7V20H12V4Z" />
</svg>